# xmcd
# 
# Track frame offsets:
#     150
#     31860
#     46965
#     77758
#     101143
#     132223
#     170590
# 
# Disc length: 2757
# 
# Revision: 17
# Processed by: cddbd v1.5.2PL0 Copyright (c) Steve Scherf et al.
# Submitted via: fre:ac v1.0.17
# 
DISCID=530ac307
DTITLE=Marillion - Fugazi
DYEAR=1984
DGENRE=Progressive Rock
TTITLE0=Assassing
TTITLE1=Punch and Judy
TTITLE2=Jigsaw
TTITLE3=Emerald Lies
TTITLE4=She Chameleon
TTITLE5=Incubus
TTITLE6=Fugazi
EXTD=YEAR: 1984
EXTT0=
EXTT1=
EXTT2=
EXTT3=
EXTT4=
EXTT5=
EXTT6=
PLAYORDER=
